<svg xmlns="http://www.w3.org/2000/svg" xmlns:xlink="http://www.w3.org/1999/xlink" width="1920" height="1080" viewBox="0 0 1920 1080"><defs><linearGradient id="a" y1="0.5" x2="1" y2="0.5" gradientUnits="objectBoundingBox"><stop offset="0" stop-color="#ff0028"/><stop offset="1" stop-color="#590000"/></linearGradient><filter id="b" x="801.222" y="630.253" width="305.778" height="68.617" filterUnits="userSpaceOnUse"><feOffset dy="3" input="SourceAlpha"/><feGaussianBlur stdDeviation="3" result="c"/><feFlood flood-opacity="0.161"/><feComposite operator="in" in2="c"/><feComposite in="SourceGraphic"/></filter><clipPath id="e"><rect width="1920" height="1080"/></clipPath></defs><g id="d" clip-path="url(#e)"><rect width="1920" height="1080" fill="#fff"/><g transform="translate(50 54)"><g transform="translate(-55 83)"><g transform="translate(0 -57)"><path d="M1297.575,540.077q0-3.962-.381-7.817a75.317,75.317,0,0,0-1.143-7.6,73.719,73.719,0,0,0-4.573-14.555q-1.524-3.531-3.321-6.832t-3.867-6.376a76.63,76.63,0,0,0-9.372-11.38q-1.309-1.309-2.673-2.548a78.954,78.954,0,0,0-21.816-14.015,76.738,76.738,0,0,0-59.948,0,78.974,78.974,0,0,0-21.814,14.015q-1.363,1.239-2.672,2.548-1.236,1.234-2.407,2.525c-.272.3-.532.607-.8.909-.5.564-1,1.13-1.477,1.708-.318.381-.624.771-.934,1.158-.411.513-.819,1.028-1.217,1.553-.328.432-.649.871-.968,1.311q-.536.738-1.055,1.488-.493.715-.972,1.442c-.314.476-.62.959-.924,1.443-.324.517-.647,1.035-.96,1.562-.276.464-.542.936-.809,1.406-.317.559-.636,1.114-.941,1.683-.236.44-.459.89-.688,1.336-.313.612-.633,1.218-.933,1.841h0L1132.4,469.921a4.6,4.6,0,0,0-8.127,0l-20.234,40.41v1.051c0-.439-.038-40.041-.114-40.447a5.913,5.913,0,0,0-.914-2.236,6.607,6.607,0,0,0-.8-.965,6.485,6.485,0,0,0-.966-.8,6.113,6.113,0,0,0-3.5-1.029h-15.852a6.109,6.109,0,0,0-3.5,1.029,6.72,6.72,0,0,0-1.766,1.765,5.88,5.88,0,0,0-.914,2.236,6.881,6.881,0,0,0-.114,1.269v82.1q0,11.18-3.658,18.492-.915,1.83-1.944,3.468a33.913,33.913,0,0,1-3.344,4.486,28.847,28.847,0,0,1-3.858,3.63,30.3,30.3,0,0,1-2.706,2.045,26.186,26.186,0,0,1-8.878,3.848q-1.626.408-3.124.713a46.836,46.836,0,0,1-5.486.811q-1.245.1-2.362.1a33.637,33.637,0,0,1-3.829-.227q-.668-.077-1.354-.179t-1.4-.228q-1.434-.252-3-.609-.781-.179-1.594-.382a28.27,28.27,0,0,1-8.726-3.848q-1.434-.927-2.856-2.045a32.647,32.647,0,0,1-3.735-3.723,40.378,40.378,0,0,1-5.206-7.861q-3.659-7.314-3.659-18.492V472.2a6.887,6.887,0,0,0-.114-1.269,5.914,5.914,0,0,0-.915-2.236,6.53,6.53,0,0,0-.8-.965,6.428,6.428,0,0,0-.965-.8,6.125,6.125,0,0,0-3.506-1.029H982.521a5.692,5.692,0,0,0-3.315,1.029,6.885,6.885,0,0,0-.953.8,6.588,6.588,0,0,0-.8.965,5.882,5.882,0,0,0-.915,2.236,6.887,6.887,0,0,0-.114,1.269v82.3h0q0,3.608.279,7.025.14,1.707.349,3.369a65.554,65.554,0,0,0,2.8,12.522q.489,1.47,1.048,2.892a53.284,53.284,0,0,0,13,19.711q.991.99,2.049,1.931a54.742,54.742,0,0,0,12.24,8.129q2.781,1.371,5.83,2.54,11.378,4.465,26.214,4.469c1.423,0,2.817-.039,4.2-.1l2.874-.07c.819-.1,1.619-.216,2.41-.338a66.876,66.876,0,0,0,16.937-3.96,59.171,59.171,0,0,0,20.118-12.6,55.943,55.943,0,0,0,6.039-7.16H1164.3c.56.6,1.114,1.2,1.694,1.776a78.564,78.564,0,0,0,24.486,16.561,76.739,76.739,0,0,0,59.948,0q1.754-.762,3.45-1.592a77.983,77.983,0,0,0,21.039-14.969q1.308-1.308,2.547-2.672t2.411-2.783a79.472,79.472,0,0,0,11.6-19.033,74.583,74.583,0,0,0,6.1-30.076Zm-150.642,26.269c-.608,1.152-1.8,1.727-3.555,1.727H1113.3q-2.643,0-3.657-1.626a4.272,4.272,0,0,1,0-4.064l16.053-33.531q1.014-2.437,2.641-2.438t2.644,2.438l15.227,32.213S1147.906,564.764,1146.933,566.346Zm87.99,22.192a45.86,45.86,0,0,1-28.936,0,43.336,43.336,0,0,1-4.493-1.823,50.636,50.636,0,0,1-15.413-11.176,53.3,53.3,0,0,1-8.346-11.717q-.567-1.077-1.092-2.186t-1.006-2.253a48.718,48.718,0,0,1-3.61-14.288q-.24-2.477-.24-5.018,0-1.244.06-2.477a49.156,49.156,0,0,1,1.443-9.69q.6-2.379,1.444-4.713.422-1.167.9-2.323a53.877,53.877,0,0,1,5.886-10.644q1.391-1.947,2.953-3.747.781-.9,1.605-1.765a51.542,51.542,0,0,1,15.413-11.074,43.042,43.042,0,0,1,11.542-3.58,47.177,47.177,0,0,1,14.838,0,43.042,43.042,0,0,1,11.542,3.58,51.531,51.531,0,0,1,15.413,11.074q.824.864,1.6,1.765,1.562,1.8,2.952,3.747a53.867,53.867,0,0,1,5.885,10.644q.481,1.156.9,2.323.843,2.336,1.446,4.713a49.17,49.17,0,0,1,1.447,9.69q.06,1.233.06,2.477,0,2.541-.241,5.018a48.762,48.762,0,0,1-3.615,14.288q-.482,1.143-1.006,2.253t-1.091,2.186a53.381,53.381,0,0,1-8.344,11.717,50.625,50.625,0,0,1-15.413,11.176A43.248,43.248,0,0,1,1234.923,588.538Z" transform="translate(-177.425 -149.857)" fill="url(#a)"/><text transform="translate(872 518)" fill="#363636" stroke="#fff" stroke-width="4" font-size="100" font-family="HelveticaNeue-Bold, Helvetica Neue" font-weight="700"><tspan x="0" y="0">MON</tspan></text></g><g transform="translate(54.222 -18.747)"><g transform="matrix(1, 0, 0, 1, -49.22, -118.25)" filter="url(#b)"><path d="M28.561,0H259.217c15.774,0,28.561,11.331,28.561,25.308s-12.787,25.308-28.561,25.308H28.561C12.787,50.617,0,39.286,0,25.308S12.787,0,28.561,0Z" transform="translate(810.22 636.25)" fill="#b20015"/></g><text transform="translate(854.656 551.634)" fill="#fff" font-size="22" font-family="HelveticaNeue, Helvetica Neue"><tspan x="0" y="0">Comenzar</tspan></text></g></g></g></g></svg>